<?xml version="1.0" encoding="utf-8"?>
<!-- Generator: Adobe Illustrator 16.0.0, SVG Export Plug-In . SVG Version: 6.00 Build 0)  -->
<!DOCTYPE svg PUBLIC "-//W3C//DTD SVG 1.1//EN" "http://www.w3.org/Graphics/SVG/1.1/DTD/svg11.dtd" [
	<!ENTITY ns_flows "http://ns.adobe.com/Flows/1.0/">
	<!ENTITY ns_extend "http://ns.adobe.com/Extensibility/1.0/">
	<!ENTITY ns_ai "http://ns.adobe.com/AdobeIllustrator/10.0/">
	<!ENTITY ns_graphs "http://ns.adobe.com/Graphs/1.0/">
	<!ENTITY ns_vars "http://ns.adobe.com/Variables/1.0/">
	<!ENTITY ns_imrep "http://ns.adobe.com/ImageReplacement/1.0/">
	<!ENTITY ns_sfw "http://ns.adobe.com/SaveForWeb/1.0/">
	<!ENTITY ns_custom "http://ns.adobe.com/GenericCustomNamespace/1.0/">
	<!ENTITY ns_adobe_xpath "http://ns.adobe.com/XPath/1.0/">
]>
<svg version="1.1"
	 id="Layer_1" xmlns:x="&ns_extend;" xmlns:i="&ns_ai;" xmlns:graph="&ns_graphs;" xmlns:v="https://vecta.io/nano"
	 xmlns="http://www.w3.org/2000/svg" xmlns:xlink="http://www.w3.org/1999/xlink" xmlns:a="http://ns.adobe.com/AdobeSVGViewerExtensions/3.0/"
	 x="0px" y="0px" width="1333.332px" height="290.667px" viewBox="0 0 1333.332 290.667"
	 enable-background="new 0 0 1333.332 290.667" xml:space="preserve">
<metadata>
	<sfw  xmlns="&ns_sfw;">
		<slices></slices>
		<sliceSourceBounds  height="285.866" width="1167.205" y="273.424" x="-294.259" bottomLeftOrigin="true"></sliceSourceBounds>
	</sfw>
</metadata>
<g>
	<path fill-rule="evenodd" clip-rule="evenodd" stroke="#231F20" stroke-width="0.5" stroke-miterlimit="2.6131" d="M199.665,6.794
		c64.205,0,117.054,48.46,123.778,110.698H285.78c-6.482-41.609-42.568-73.455-86.115-73.455c-48.135,0-87.155,38.906-87.155,86.899
		c0,47.993,39.021,86.899,87.155,86.899c24.271,0,46.221-9.895,62.024-25.859h46.406c-21.376,37.672-61.921,63.101-108.43,63.101
		c-68.764,0-124.507-55.581-124.507-124.141C75.157,62.376,130.901,6.794,199.665,6.794z"/>
	<path fill-rule="evenodd" clip-rule="evenodd" stroke="#231F20" stroke-width="0.5" stroke-miterlimit="2.6131" d="
		M147.585,136.114h188.696c9.559,0,17.379,7.823,17.379,17.382v2.479c0,9.559-7.82,17.382-17.379,17.382H147.585
		c-9.559,0-17.382-7.823-17.382-17.382v-2.479C130.203,143.937,138.026,136.114,147.585,136.114z"/>
	<polygon fill-rule="evenodd" clip-rule="evenodd" points="157.479,61.242 185.394,61.242 209.726,130.759 185.4,130.759 
		171.495,91.033 157.593,130.759 129.78,130.759 	"/>
	<path fill-rule="evenodd" clip-rule="evenodd" fill="#FF0013" d="M216.689,61.242h24.431l27.699,69.517H241.02l-5.164-14.757
		c1.3-1.339,2.1-3.169,2.1-5.185c0-3.791-2.834-6.92-6.5-7.386l-4.34-12.398v0.002L216.689,61.242z"/>
	<polygon fill-rule="evenodd" clip-rule="evenodd" points="215.099,66.021 220.388,81.181 225.678,96.34 218.616,111.5 
		211.553,126.659 206.264,111.5 200.975,96.34 208.037,81.181 	"/>
	<path fill-rule="evenodd" clip-rule="evenodd" fill="#EC1C24" d="M230.51,115.783c2.734,0,4.965-2.228,4.965-4.963
		c0-2.737-2.23-4.968-4.965-4.968c-2.735,0-4.965,2.23-4.965,4.968C225.544,113.555,227.775,115.783,230.51,115.783z"/>
	<g>
		<path stroke="#231F20" stroke-width="0.216" stroke-miterlimit="45" d="M464.19,88.902v13.521h-36.412
			c-1.429,0-2.724,0.448-3.882,1.339c-1.161,0.893-2.165,2.075-3.012,3.547c-0.85,1.473-1.519,3.192-2.008,5.154
			c-0.492,1.964-0.736,4.016-0.736,6.158v49.129c0,2.055,0.222,4.039,0.669,5.957c0.445,1.921,1.092,3.638,1.941,5.154
			c0.847,1.519,1.875,2.724,3.079,3.614c1.205,0.894,2.521,1.339,3.949,1.339h18.875V149.41h-17.938v-13.386h37.082v61.043h-46.72
			c-3.125,0-5.957-0.757-8.5-2.275c-2.543-1.517-4.708-3.592-6.493-6.226c-1.786-2.631-3.169-5.733-4.15-9.304
			c-0.983-3.568-1.472-7.406-1.472-11.513v-49.129c0-4.194,0.512-8.099,1.539-11.713c1.025-3.615,2.431-6.761,4.217-9.438
			c1.785-2.677,3.949-4.773,6.493-6.292c2.543-1.517,5.332-2.276,8.367-2.276H464.19z"/>
		<path stroke="#231F20" stroke-width="0.216" stroke-miterlimit="45" d="M525.901,174.443h-23.828l-3.213,22.624h-20.883
			l22.356-108.165h27.309l22.49,108.165h-20.75L525.901,174.443z M504.081,160.922h19.813l-8.835-58.5h-2.142L504.081,160.922z"/>
		<path stroke="#231F20" stroke-width="0.216" stroke-miterlimit="45" d="M581.723,88.902l14.056,82.463l13.922-82.463h20.883
			v108.165h-15.261v-68.54l-11.513,68.54H587.48l-10.843-68.005v68.005h-15.663V88.902H581.723z"/>
		<path stroke="#231F20" stroke-width="0.216" stroke-miterlimit="45" d="M689.486,174.443h-23.828l-3.213,22.624h-20.883
			l22.356-108.165h27.31l22.488,108.165h-20.748L689.486,174.443z M667.665,160.922h19.813l-8.835-58.5H676.5L667.665,160.922z"/>
		<path stroke="#231F20" stroke-width="0.216" stroke-miterlimit="45" d="M778.426,88.902v94.912h47.925v13.253h-68.674V88.902
			H778.426z"/>
		<path stroke="#231F20" stroke-width="0.216" stroke-miterlimit="45" d="M885.787,174.443h-23.829l-3.213,22.624h-20.883
			l22.355-108.165h27.31l22.489,108.165h-20.749L885.787,174.443z M863.967,160.922h19.813l-8.836-58.5h-2.142L863.967,160.922z"/>
		<path stroke="#231F20" stroke-width="0.216" stroke-miterlimit="45" d="M969.721,88.902c3.033,0,5.823,0.916,8.367,2.744
			c2.543,1.83,4.706,4.284,6.492,7.363c1.784,3.079,3.189,6.693,4.217,10.843c1.024,4.15,1.539,8.5,1.539,13.052
			c0,4.731-0.491,9.103-1.472,13.119c-0.983,4.016-2.366,7.497-4.15,10.442c-1.786,2.944-3.949,5.243-6.492,6.894
			c-2.544,1.652-5.378,2.477-8.501,2.477h-27.979v41.231h-20.749V88.902H969.721z M941.742,142.181h19.144
			c6.426,0,9.638-6.514,9.638-19.545c0-13.475-3.212-20.214-9.638-20.214h-19.144V142.181z"/>
		<path stroke="#231F20" stroke-width="0.216" stroke-miterlimit="45" d="M1070.79,88.902v13.521h-22.49v94.645h-20.481v-94.645
			h-23.561V88.902H1070.79z"/>
		<path stroke="#231F20" stroke-width="0.216" stroke-miterlimit="45" d="M1134.242,88.902c3.032,0,5.844,0.759,8.434,2.276
			c2.587,1.519,4.772,3.614,6.56,6.292c1.784,2.677,3.189,5.823,4.217,9.438c1.024,3.614,1.539,7.52,1.539,11.713v49.129
			c0,4.017-0.491,7.811-1.473,11.379c-0.983,3.57-2.365,6.673-4.149,9.304c-1.786,2.634-3.949,4.731-6.493,6.292
			c-2.543,1.563-5.421,2.343-8.634,2.343h-29.719c-3.125,0-5.957-0.757-8.501-2.275c-2.543-1.517-4.731-3.615-6.56-6.292
			c-1.83-2.678-3.235-5.801-4.217-9.371c-0.983-3.568-1.473-7.362-1.473-11.379v-49.129c0-4.194,0.489-8.099,1.473-11.713
			c0.981-3.615,2.387-6.761,4.217-9.438c1.828-2.677,4.017-4.773,6.56-6.292c2.544-1.517,5.376-2.276,8.501-2.276H1134.242z
			 M1103.72,167.75c0,2.055,0.222,4.039,0.67,5.957c0.445,1.921,1.07,3.638,1.874,5.154c0.803,1.519,1.807,2.724,3.012,3.614
			c1.205,0.894,2.564,1.339,4.083,1.339h12.048c1.517,0,2.878-0.445,4.083-1.339c1.205-0.891,2.209-2.075,3.013-3.547
			c0.803-1.473,1.426-3.167,1.874-5.087c0.445-1.919,0.669-3.949,0.669-6.092v-49.129c0-2.23-0.224-4.328-0.669-6.292
			c-0.448-1.962-1.095-3.681-1.941-5.154c-0.85-1.473-1.874-2.631-3.079-3.48c-1.205-0.847-2.522-1.272-3.949-1.272h-12.048
			c-1.519,0-2.857,0.448-4.016,1.339c-1.161,0.893-2.165,2.075-3.013,3.547c-0.849,1.473-1.495,3.192-1.94,5.154
			c-0.448,1.964-0.67,4.016-0.67,6.158V167.75z"/>
		<path stroke="#231F20" stroke-width="0.216" stroke-miterlimit="45" d="M1215.097,88.902c3.033,0,5.823,0.916,8.367,2.744
			c2.543,1.83,4.706,4.284,6.492,7.363c1.784,3.079,3.189,6.693,4.217,10.843c1.024,4.15,1.539,8.5,1.539,13.052
			c0,4.731-0.491,9.103-1.472,13.119c-0.983,4.016-2.366,7.497-4.15,10.442c-1.786,2.944-3.949,5.243-6.492,6.894
			c-2.544,1.652-5.378,2.477-8.501,2.477h-27.979v41.231h-20.749V88.902H1215.097z M1187.118,142.181h19.144
			c6.426,0,9.638-6.514,9.638-19.545c0-13.475-3.212-20.214-9.638-20.214h-19.144V142.181z"/>
	</g>
	<g>
		<path fill-rule="evenodd" clip-rule="evenodd" stroke="#231F20" stroke-width="0.5" stroke-miterlimit="2.6131" d="
			M459.447,222.918c12.532,0,22.849,9.46,24.162,21.607h-7.352c-1.266-8.121-8.309-14.339-16.81-14.339
			c-9.397,0-17.013,7.598-17.013,16.964c0,9.365,7.616,16.964,17.013,16.964c4.738,0,9.023-1.936,12.106-5.047h9.06
			c-4.173,7.352-12.088,12.314-21.166,12.314c-13.423,0-24.303-10.85-24.303-24.231S446.024,222.918,459.447,222.918z"/>
		<path fill-rule="evenodd" clip-rule="evenodd" stroke="#231F20" stroke-width="0.5" stroke-miterlimit="2.6131" d="
			M449.281,248.16h36.832c1.867,0,3.394,1.527,3.394,3.394v0.487c0,1.866-1.527,3.393-3.394,3.393h-36.832
			c-1.867,0-3.394-1.526-3.394-3.393v-0.487C445.887,249.687,447.414,248.16,449.281,248.16z"/>
	</g>
	<g>
		<path d="M518.138,275.002v-27.767h4.209v3.896c0.871-1.359,2.03-2.453,3.477-3.281s3.094-1.242,4.942-1.242
			c2.057,0,3.743,0.428,5.059,1.281c1.316,0.854,2.244,2.049,2.785,3.582c2.196-3.242,5.055-4.863,8.576-4.863
			c2.754,0,4.872,0.763,6.354,2.288c1.481,1.525,2.222,3.874,2.222,7.046v19.061h-4.68v-17.491c0-1.883-0.153-3.238-0.458-4.066
			c-0.305-0.827-0.858-1.494-1.66-2c-0.802-0.505-1.743-0.758-2.824-0.758c-1.952,0-3.573,0.649-4.863,1.947
			c-1.29,1.299-1.935,3.378-1.935,6.236v16.132h-4.706v-18.041c0-2.091-0.384-3.66-1.15-4.706c-0.768-1.046-2.022-1.568-3.765-1.568
			c-1.325,0-2.549,0.349-3.673,1.046c-1.125,0.697-1.939,1.717-2.445,3.059c-0.506,1.343-0.758,3.277-0.758,5.805v14.406H518.138z"
			/>
		<path d="M562.769,242.084v-5.412h4.707v5.412H562.769z M562.769,275.002v-27.767h4.707v27.767H562.769z"/>
		<path d="M574.639,275.002v-27.767h4.235v3.948c2.04-3.051,4.985-4.576,8.837-4.576c1.673,0,3.211,0.301,4.615,0.902
			c1.403,0.602,2.453,1.39,3.15,2.366s1.186,2.136,1.464,3.478c0.174,0.871,0.261,2.396,0.261,4.575v17.073h-4.706v-16.891
			c0-1.917-0.183-3.351-0.549-4.301c-0.366-0.949-1.016-1.708-1.948-2.274s-2.026-0.85-3.281-0.85c-2.004,0-3.735,0.637-5.19,1.908
			c-1.456,1.272-2.183,3.687-2.183,7.243v15.164H574.639z"/>
		<path d="M603.557,277.303l4.575,0.68c0.192,1.412,0.723,2.44,1.595,3.085c1.167,0.872,2.762,1.308,4.785,1.308
			c2.179,0,3.86-0.436,5.046-1.308c1.185-0.871,1.987-2.091,2.406-3.66c0.244-0.959,0.357-2.972,0.34-6.039
			c-2.057,2.423-4.62,3.634-7.687,3.634c-3.817,0-6.772-1.377-8.863-4.131c-2.092-2.754-3.138-6.057-3.138-9.909
			c0-2.649,0.479-5.094,1.438-7.334c0.958-2.239,2.349-3.97,4.17-5.19c1.821-1.22,3.961-1.83,6.418-1.83
			c3.277,0,5.979,1.325,8.105,3.975v-3.347h4.34v24.002c0,4.322-0.44,7.386-1.32,9.189c-0.88,1.805-2.275,3.229-4.184,4.275
			s-4.258,1.568-7.046,1.568c-3.312,0-5.987-0.745-8.026-2.235C604.472,282.545,603.487,280.301,603.557,277.303z M607.452,260.623
			c0,3.643,0.723,6.301,2.17,7.975c1.446,1.673,3.259,2.51,5.438,2.51c2.161,0,3.974-0.832,5.438-2.497
			c1.464-1.664,2.196-4.274,2.196-7.831c0-3.398-0.754-5.961-2.262-7.687c-1.508-1.726-3.325-2.589-5.451-2.589
			c-2.092,0-3.87,0.851-5.334,2.55S607.452,257.276,607.452,260.623z"/>
		<path d="M647.246,263.499v-4.732h14.458v4.732H647.246z"/>
	</g>
	<polygon fill-rule="evenodd" clip-rule="evenodd" points="686.086,244.29 697.182,244.29 706.854,271.921 697.185,271.921 
		691.657,256.128 686.13,271.921 675.075,271.921 	"/>
	<path fill-rule="evenodd" clip-rule="evenodd" fill="#FF0013" d="M709.62,244.29h9.71l11.011,27.632h-11.05l-2.053-5.867
		c0.516-0.534,0.835-1.261,0.835-2.061c0-1.505-1.128-2.751-2.584-2.933l-1.726-4.933v0.006L709.62,244.29z"/>
	<polygon fill-rule="evenodd" clip-rule="evenodd" points="708.987,246.188 711.089,252.212 713.192,258.242 710.386,264.265 
		707.578,270.29 705.475,264.265 703.373,258.242 706.182,252.212 	"/>
	<path fill-rule="evenodd" clip-rule="evenodd" fill="#EC1C24" d="M715.114,265.965c1.085,0,1.974-0.884,1.974-1.972
		c0-1.087-0.889-1.972-1.974-1.972c-1.088,0-1.975,0.885-1.975,1.972C713.139,265.082,714.026,265.965,715.114,265.965z"/>
	<g>
		<path d="M749.748,263.957l4.628,0.602c-0.506,3.189-1.8,5.687-3.883,7.491c-2.083,1.804-4.641,2.706-7.674,2.706
			c-3.8,0-6.854-1.242-9.164-3.727c-2.31-2.483-3.464-6.043-3.464-10.681c0-2.997,0.497-5.621,1.49-7.869
			c0.993-2.249,2.506-3.936,4.536-5.06s4.24-1.687,6.628-1.687c3.016,0,5.481,0.763,7.399,2.288
			c1.917,1.525,3.146,3.691,3.687,6.497l-4.575,0.706c-0.437-1.865-1.208-3.269-2.314-4.21c-1.106-0.94-2.444-1.411-4.013-1.411
			c-2.371,0-4.297,0.85-5.778,2.549c-1.482,1.699-2.223,4.389-2.223,8.066c0,3.729,0.715,6.44,2.144,8.131
			c1.43,1.691,3.295,2.536,5.596,2.536c1.848,0,3.39-0.566,4.628-1.699C748.633,268.053,749.417,266.31,749.748,263.957z"/>
		<path d="M762.743,274.127h-4.366v-38.33h4.706v13.675c1.987-2.492,4.523-3.739,7.608-3.739c1.708,0,3.324,0.345,4.85,1.033
			s2.78,1.656,3.766,2.902c0.984,1.246,1.756,2.749,2.313,4.51s0.837,3.644,0.837,5.647c0,4.759-1.177,8.437-3.53,11.033
			c-2.353,2.598-5.177,3.896-8.471,3.896c-3.277,0-5.849-1.368-7.713-4.105V274.127z M762.691,260.035
			c0,3.33,0.453,5.735,1.359,7.217c1.481,2.423,3.486,3.634,6.014,3.634c2.057,0,3.835-0.893,5.334-2.68s2.249-4.449,2.249-7.987
			c0-3.626-0.72-6.302-2.157-8.027c-1.438-1.726-3.177-2.588-5.217-2.588c-2.057,0-3.834,0.894-5.333,2.68
			C763.44,254.07,762.691,256.654,762.691,260.035z"/>
		<path d="M786.432,260.244c0-5.142,1.429-8.95,4.287-11.426c2.389-2.056,5.299-3.085,8.733-3.085c3.817,0,6.937,1.251,9.359,3.752
			c2.423,2.502,3.635,5.957,3.635,10.367c0,3.573-0.536,6.384-1.608,8.432c-1.071,2.049-2.632,3.639-4.68,4.771
			c-2.049,1.133-4.284,1.7-6.706,1.7c-3.888,0-7.029-1.246-9.426-3.739C787.63,268.524,786.432,264.933,786.432,260.244z
			 M791.269,260.244c0,3.557,0.775,6.219,2.326,7.988c1.552,1.769,3.504,2.653,5.857,2.653c2.335,0,4.278-0.889,5.83-2.667
			c1.552-1.777,2.327-4.488,2.327-8.131c0-3.434-0.78-6.035-2.34-7.805c-1.561-1.769-3.5-2.654-5.817-2.654
			c-2.354,0-4.306,0.881-5.857,2.642C792.044,254.031,791.269,256.688,791.269,260.244z"/>
		<path d="M816.211,260.244c0-5.142,1.429-8.95,4.287-11.426c2.389-2.056,5.299-3.085,8.733-3.085c3.817,0,6.937,1.251,9.359,3.752
			c2.423,2.502,3.635,5.957,3.635,10.367c0,3.573-0.536,6.384-1.608,8.432c-1.071,2.049-2.632,3.639-4.68,4.771
			c-2.049,1.133-4.284,1.7-6.706,1.7c-3.888,0-7.029-1.246-9.426-3.739C817.409,268.524,816.211,264.933,816.211,260.244z
			 M821.048,260.244c0,3.557,0.775,6.219,2.326,7.988c1.552,1.769,3.504,2.653,5.857,2.653c2.335,0,4.278-0.889,5.83-2.667
			c1.552-1.777,2.327-4.488,2.327-8.131c0-3.434-0.78-6.035-2.34-7.805c-1.561-1.769-3.5-2.654-5.817-2.654
			c-2.354,0-4.306,0.881-5.857,2.642C821.823,254.031,821.048,256.688,821.048,260.244z"/>
		<path d="M847.769,274.127v-38.33h4.706v21.858l11.139-11.295h6.092l-10.615,10.301l11.688,17.466h-5.805l-9.177-14.197
			l-3.321,3.189v11.008H847.769z"/>
		<path d="M887.563,262.624v-4.732h14.459v4.732H887.563z"/>
	</g>
	<path fill-rule="evenodd" clip-rule="evenodd" fill="#FF0013" d="M496.435,244.541h9.708l11.01,27.632h-11.049l-2.052-5.867
		c0.518-0.534,0.833-1.255,0.833-2.061c0-1.507-1.124-2.751-2.583-2.933l-1.724-4.927l0,0L496.435,244.541z"/>
	<polygon fill-rule="evenodd" clip-rule="evenodd" points="495.803,246.439 497.905,252.469 500.007,258.493 497.199,264.516 
		494.393,270.541 492.291,264.516 490.189,258.493 492.994,252.469 	"/>
	<path fill-rule="evenodd" clip-rule="evenodd" fill="#EC1C24" d="M501.926,266.221c1.088,0,1.974-0.889,1.974-1.977
		c0-1.087-0.886-1.972-1.974-1.972c-1.087,0-1.974,0.885-1.974,1.972C499.952,265.333,500.839,266.221,501.926,266.221z"/>
	<g>
		<path d="M972.374,261.139c0-5.142,1.429-8.95,4.287-11.426c2.389-2.056,5.299-3.085,8.733-3.085c3.817,0,6.937,1.251,9.359,3.752
			c2.423,2.502,3.635,5.957,3.635,10.367c0,3.573-0.536,6.384-1.608,8.432c-1.071,2.049-2.632,3.639-4.68,4.771
			c-2.049,1.133-4.284,1.7-6.706,1.7c-3.888,0-7.029-1.246-9.426-3.739C973.573,269.419,972.374,265.829,972.374,261.139z
			 M977.211,261.139c0,3.557,0.775,6.219,2.326,7.988c1.552,1.769,3.504,2.653,5.857,2.653c2.335,0,4.278-0.889,5.83-2.667
			c1.552-1.777,2.327-4.488,2.327-8.131c0-3.434-0.78-6.035-2.34-7.805c-1.561-1.769-3.5-2.654-5.817-2.654
			c-2.354,0-4.306,0.881-5.857,2.642C977.987,254.926,977.211,257.583,977.211,261.139z"/>
		<path d="M1003.854,275.023v-27.767h4.235v4.209c1.081-1.969,2.079-3.268,2.994-3.896c0.915-0.627,1.921-0.941,3.02-0.941
			c1.586,0,3.198,0.506,4.837,1.517l-1.621,4.366c-1.15-0.68-2.301-1.02-3.451-1.02c-1.028,0-1.952,0.31-2.771,0.929
			c-0.819,0.618-1.403,1.477-1.752,2.575c-0.522,1.673-0.784,3.503-0.784,5.49v14.537H1003.854z"/>
		<path d="M1021.763,275.023v-38.33h4.706v21.858l11.139-11.295h6.092l-10.615,10.301l11.688,17.466h-5.805l-9.177-14.197
			l-3.321,3.189v11.008H1021.763z"/>
		<path d="M1046.628,266.735l4.653-0.732c0.262,1.865,0.989,3.295,2.184,4.288c1.193,0.993,2.863,1.49,5.007,1.49
			c2.161,0,3.765-0.439,4.811-1.32c1.046-0.88,1.569-1.913,1.569-3.099c0-1.063-0.462-1.899-1.386-2.51
			c-0.646-0.418-2.249-0.949-4.812-1.595c-3.451-0.871-5.843-1.625-7.177-2.262c-1.333-0.636-2.345-1.517-3.033-2.641
			s-1.032-2.366-1.032-3.726c0-1.237,0.283-2.384,0.85-3.438s1.338-1.93,2.313-2.628c0.732-0.54,1.73-0.997,2.994-1.372
			s2.619-0.563,4.065-0.563c2.179,0,4.092,0.314,5.739,0.941c1.647,0.628,2.863,1.478,3.647,2.549
			c0.784,1.072,1.324,2.507,1.621,4.302l-4.602,0.627c-0.209-1.429-0.815-2.545-1.817-3.347c-1.003-0.802-2.419-1.202-4.249-1.202
			c-2.161,0-3.704,0.357-4.628,1.071c-0.924,0.715-1.386,1.552-1.386,2.511c0,0.61,0.192,1.159,0.575,1.646
			c0.384,0.506,0.985,0.925,1.805,1.255c0.471,0.175,1.856,0.575,4.157,1.203c3.329,0.889,5.651,1.617,6.968,2.184
			c1.315,0.566,2.349,1.39,3.098,2.471c0.75,1.081,1.125,2.423,1.125,4.026c0,1.568-0.458,3.046-1.373,4.432
			s-2.235,2.457-3.961,3.216c-1.726,0.758-3.678,1.138-5.856,1.138c-3.608,0-6.358-0.75-8.249-2.249
			C1048.358,271.903,1047.151,269.68,1046.628,266.735z"/>
		<path d="M1085.559,270.814l0.68,4.156c-1.324,0.279-2.51,0.419-3.556,0.419c-1.708,0-3.032-0.271-3.974-0.811
			s-1.604-1.251-1.987-2.131c-0.384-0.88-0.575-2.732-0.575-5.556v-15.976h-3.451v-3.66h3.451v-6.877l4.68-2.823v9.7h4.732v3.66
			h-4.732v16.236c0,1.343,0.083,2.205,0.249,2.589c0.165,0.384,0.436,0.688,0.811,0.915c0.374,0.227,0.91,0.34,1.607,0.34
			C1084.017,270.997,1084.705,270.936,1085.559,270.814z"/>
		<path d="M1108.28,271.598c-1.743,1.481-3.421,2.527-5.033,3.137c-1.612,0.61-3.342,0.916-5.189,0.916
			c-3.051,0-5.396-0.745-7.033-2.236c-1.639-1.49-2.458-3.394-2.458-5.713c0-1.359,0.31-2.601,0.929-3.726
			c0.618-1.124,1.429-2.026,2.432-2.706c1.002-0.68,2.131-1.193,3.386-1.542c0.924-0.244,2.317-0.479,4.183-0.706
			c3.8-0.453,6.598-0.994,8.394-1.621c0.017-0.645,0.025-1.055,0.025-1.229c0-1.917-0.444-3.268-1.333-4.052
			c-1.203-1.063-2.989-1.596-5.36-1.596c-2.213,0-3.848,0.389-4.902,1.164s-1.834,2.148-2.34,4.118l-4.602-0.628
			c0.419-1.97,1.106-3.56,2.065-4.771c0.959-1.211,2.345-2.144,4.157-2.798c1.813-0.653,3.913-0.98,6.302-0.98
			c2.37,0,4.296,0.279,5.777,0.837s2.571,1.26,3.269,2.104c0.697,0.846,1.186,1.913,1.464,3.203c0.157,0.802,0.235,2.248,0.235,4.34
			v6.275c0,4.375,0.101,7.143,0.301,8.301c0.2,1.16,0.597,2.271,1.189,3.334h-4.915
			C1108.733,274.047,1108.419,272.905,1108.28,271.598z M1107.888,261.087c-1.709,0.697-4.271,1.29-7.688,1.777
			c-1.935,0.279-3.303,0.593-4.104,0.941c-0.802,0.35-1.421,0.859-1.856,1.53s-0.653,1.416-0.653,2.235
			c0,1.255,0.475,2.301,1.425,3.137c0.949,0.837,2.34,1.256,4.17,1.256c1.813,0,3.425-0.396,4.837-1.19
			c1.412-0.793,2.449-1.878,3.111-3.255c0.506-1.063,0.759-2.632,0.759-4.706V261.087z"/>
		<path d="M1130.215,270.814l0.68,4.156c-1.324,0.279-2.51,0.419-3.556,0.419c-1.708,0-3.032-0.271-3.974-0.811
			s-1.604-1.251-1.987-2.131c-0.384-0.88-0.575-2.732-0.575-5.556v-15.976h-3.451v-3.66h3.451v-6.877l4.68-2.823v9.7h4.732v3.66
			h-4.732v16.236c0,1.343,0.083,2.205,0.249,2.589c0.165,0.384,0.436,0.688,0.811,0.915c0.374,0.227,0.91,0.34,1.607,0.34
			C1128.673,270.997,1129.362,270.936,1130.215,270.814z"/>
		<path d="M1134.843,242.105v-5.412h4.706v5.412H1134.843z M1134.843,275.023v-27.767h4.706v27.767H1134.843z"/>
		<path d="M1144.962,261.139c0-5.142,1.429-8.95,4.287-11.426c2.389-2.056,5.299-3.085,8.733-3.085c3.817,0,6.937,1.251,9.359,3.752
			c2.423,2.502,3.635,5.957,3.635,10.367c0,3.573-0.536,6.384-1.608,8.432c-1.071,2.049-2.632,3.639-4.68,4.771
			c-2.049,1.133-4.284,1.7-6.706,1.7c-3.888,0-7.029-1.246-9.426-3.739C1146.16,269.419,1144.962,265.829,1144.962,261.139z
			 M1149.799,261.139c0,3.557,0.775,6.219,2.326,7.988c1.552,1.769,3.504,2.653,5.857,2.653c2.335,0,4.278-0.889,5.83-2.667
			c1.552-1.777,2.327-4.488,2.327-8.131c0-3.434-0.78-6.035-2.34-7.805c-1.561-1.769-3.5-2.654-5.817-2.654
			c-2.354,0-4.306,0.881-5.857,2.642C1150.574,254.926,1149.799,257.583,1149.799,261.139z"/>
		<path d="M1176.493,275.023v-27.767h4.236v3.948c2.039-3.051,4.984-4.576,8.837-4.576c1.674,0,3.212,0.301,4.615,0.902
			c1.402,0.602,2.453,1.39,3.15,2.366c0.696,0.977,1.185,2.136,1.464,3.478c0.174,0.871,0.262,2.396,0.262,4.575v17.073h-4.706
			v-16.891c0-1.917-0.184-3.351-0.55-4.301c-0.366-0.949-1.016-1.708-1.947-2.274c-0.933-0.566-2.026-0.85-3.281-0.85
			c-2.005,0-3.735,0.637-5.19,1.908c-1.455,1.272-2.183,3.687-2.183,7.243v15.164H1176.493z"/>
	</g>
	<polygon fill-rule="evenodd" clip-rule="evenodd" points="960.417,272.302 949.321,272.302 939.65,244.672 949.319,244.672 
		954.846,260.459 960.37,244.672 971.425,244.672 	"/>
	<path fill-rule="evenodd" clip-rule="evenodd" fill="#FF0013" d="M936.884,272.302h-9.71l-11.011-27.63h11.049l2.053,5.861
		c-0.516,0.534-0.834,1.261-0.834,2.061c0,1.511,1.126,2.755,2.583,2.938l1.726,4.927l0,0L936.884,272.302z"/>
	<polygon fill-rule="evenodd" clip-rule="evenodd" points="937.516,270.4 935.414,264.375 933.312,258.352 936.117,252.328 
		938.923,246.298 941.028,252.328 943.13,258.352 940.322,264.375 	"/>
	<circle fill-rule="evenodd" clip-rule="evenodd" fill="#EC1C24" cx="931.391" cy="252.597" r="1.974"/>
</g>
</svg>
