<?xml version="1.0" encoding="utf-8"?>
<!-- Generator: Adobe Illustrator 16.0.0, SVG Export Plug-In . SVG Version: 6.00 Build 0)  -->
<!DOCTYPE svg PUBLIC "-//W3C//DTD SVG 1.1//EN" "http://www.w3.org/Graphics/SVG/1.1/DTD/svg11.dtd" [
	<!ENTITY ns_flows "http://ns.adobe.com/Flows/1.0/">
	<!ENTITY ns_extend "http://ns.adobe.com/Extensibility/1.0/">
	<!ENTITY ns_ai "http://ns.adobe.com/AdobeIllustrator/10.0/">
	<!ENTITY ns_graphs "http://ns.adobe.com/Graphs/1.0/">
	<!ENTITY ns_vars "http://ns.adobe.com/Variables/1.0/">
	<!ENTITY ns_imrep "http://ns.adobe.com/ImageReplacement/1.0/">
	<!ENTITY ns_sfw "http://ns.adobe.com/SaveForWeb/1.0/">
	<!ENTITY ns_custom "http://ns.adobe.com/GenericCustomNamespace/1.0/">
	<!ENTITY ns_adobe_xpath "http://ns.adobe.com/XPath/1.0/">
]>
<svg version="1.1"
	 id="Layer_1" xmlns:x="&ns_extend;" xmlns:i="&ns_ai;" xmlns:graph="&ns_graphs;" xmlns:v="https://vecta.io/nano"
	 xmlns="http://www.w3.org/2000/svg" xmlns:xlink="http://www.w3.org/1999/xlink" xmlns:a="http://ns.adobe.com/AdobeSVGViewerExtensions/3.0/"
	 x="0px" y="0px" width="1165.442px" height="290.667px" viewBox="88.786 0 1165.442 290.667"
	 enable-background="new 88.786 0 1165.442 290.667" xml:space="preserve">
<metadata>
	<sfw  xmlns="&ns_sfw;">
		<slices></slices>
		<sliceSourceBounds  width="1161.092" height="284.154" x="-275.234" y="278.302" bottomLeftOrigin="true"></sliceSourceBounds>
		<optimizationSettings></optimizationSettings>
	</sfw>
</metadata>
<g>
	<path fill-rule="evenodd" clip-rule="evenodd" fill="#FFFFFF" stroke="#FFFFFF" stroke-width="0.5" stroke-miterlimit="2.6131" d="
		M218.037,3.627c63.868,0,116.442,48.206,123.132,110.118h-37.468c-6.445-41.391-42.343-73.07-85.664-73.07
		c-47.883,0-86.698,38.704-86.698,86.443c0,47.743,38.815,86.447,86.698,86.447c24.147,0,45.984-9.845,61.704-25.724h46.161
		c-21.265,37.474-61.6,62.771-107.865,62.771c-68.404,0-123.855-55.291-123.855-123.495C94.182,58.918,149.634,3.627,218.037,3.627z
		"/>
	<path fill-rule="evenodd" clip-rule="evenodd" fill="#FFFFFF" stroke="#FFFFFF" stroke-width="0.5" stroke-miterlimit="2.6131" d="
		M166.232,132.268H353.94c9.509,0,17.286,7.782,17.286,17.291v2.47c0,9.51-7.776,17.287-17.286,17.287H166.232
		c-9.508,0-17.291-7.777-17.291-17.287v-2.47C148.942,140.05,156.724,132.268,166.232,132.268z"/>
	
		<polygon fill-rule="evenodd" clip-rule="evenodd" fill="#FFFFFF" stroke="#FFFFFF" stroke-width="0.216" stroke-miterlimit="2.6131" points="
		176.074,57.789 203.842,57.789 228.046,126.941 203.852,126.941 190.021,87.426 176.189,126.941 148.52,126.941 	"/>
	<path fill-rule="evenodd" clip-rule="evenodd" fill="#EC1C24" d="M234.975,57.789h24.303l27.554,69.152h-27.653l-5.139-14.679
		c1.295-1.332,2.091-3.152,2.091-5.155c0-3.774-2.819-6.887-6.466-7.35l-4.317-12.331l0,0L234.975,57.789z"/>
	
		<polygon fill-rule="evenodd" clip-rule="evenodd" fill="#FFFFFF" stroke="#FFFFFF" stroke-width="0.216" stroke-miterlimit="2.6131" points="
		233.393,62.543 238.652,77.623 243.917,92.704 236.888,107.784 229.866,122.864 224.607,107.784 219.343,92.704 226.365,77.623 	
		"/>
	<path fill-rule="evenodd" clip-rule="evenodd" fill="#EC1C24" d="M248.723,112.046c2.721,0,4.937-2.218,4.937-4.939
		c0-2.72-2.216-4.942-4.937-4.942s-4.942,2.222-4.942,4.942C243.781,109.828,246.002,112.046,248.723,112.046z"/>
	<g>
		<path fill="#FFFFFF" stroke="#FFFFFF" stroke-width="0.216" stroke-miterlimit="45" d="M481.177,85.306v13.45h-36.221
			c-1.421,0-2.709,0.445-3.862,1.332c-1.155,0.889-2.153,2.064-2.996,3.529c-0.845,1.465-1.511,3.175-1.998,5.127
			c-0.489,1.954-0.732,3.995-0.732,6.125v48.873c0,2.043,0.221,4.018,0.666,5.926c0.443,1.91,1.086,3.618,1.931,5.127
			c0.843,1.511,1.864,2.709,3.063,3.596c1.198,0.888,2.507,1.331,3.928,1.331h18.776v-34.224h-17.844V132.18h36.887v60.724H436.3
			c-3.108,0-5.926-0.753-8.456-2.264c-2.53-1.509-4.684-3.573-6.458-6.192c-1.777-2.617-3.152-5.703-4.128-9.255
			c-0.978-3.55-1.465-7.368-1.465-11.452v-48.873c0-4.171,0.51-8.056,1.532-11.652c1.02-3.596,2.417-6.725,4.195-9.388
			c1.774-2.664,3.928-4.748,6.458-6.259c2.53-1.509,5.304-2.264,8.323-2.264H481.177z"/>
		<path fill="#FFFFFF" stroke="#FFFFFF" stroke-width="0.216" stroke-miterlimit="45" d="M542.566,170.399h-23.704l-3.196,22.505
			h-20.774l22.239-107.598h27.166l22.372,107.598h-20.641L542.566,170.399z M520.86,156.949h19.709l-8.789-58.193h-2.131
			L520.86,156.949z"/>
		<path fill="#FFFFFF" stroke="#FFFFFF" stroke-width="0.216" stroke-miterlimit="45" d="M598.095,85.306l13.982,82.03l13.849-82.03
			H646.7v107.598H631.52v-68.181l-11.453,68.181h-16.246l-10.787-67.648v67.648h-15.58V85.306H598.095z"/>
		<path fill="#FFFFFF" stroke="#FFFFFF" stroke-width="0.216" stroke-miterlimit="45" d="M705.293,170.399h-23.704l-3.195,22.505
			h-20.774l22.239-107.598h27.165l22.372,107.598h-20.641L705.293,170.399z M683.587,156.949h19.708l-8.789-58.193h-2.13
			L683.587,156.949z"/>
		<path fill="#FFFFFF" stroke="#FFFFFF" stroke-width="0.216" stroke-miterlimit="45" d="M793.768,85.306v94.415h47.673v13.184
			h-68.314V85.306H793.768z"/>
		<path fill="#FFFFFF" stroke="#FFFFFF" stroke-width="0.216" stroke-miterlimit="45" d="M900.566,170.399h-23.704l-3.195,22.505
			h-20.774l22.239-107.598h27.165l22.372,107.598h-20.641L900.566,170.399z M878.86,156.949h19.708l-8.789-58.193h-2.13
			L878.86,156.949z"/>
		<path fill="#FFFFFF" stroke="#FFFFFF" stroke-width="0.216" stroke-miterlimit="45" d="M984.06,85.306
			c3.017,0,5.792,0.911,8.322,2.729c2.53,1.821,4.682,4.262,6.459,7.324c1.774,3.063,3.173,6.659,4.194,10.787
			c1.02,4.128,1.531,8.456,1.531,12.984c0,4.707-0.488,9.055-1.465,13.05c-0.978,3.995-2.353,7.457-4.128,10.387
			c-1.776,2.93-3.929,5.217-6.458,6.858c-2.53,1.644-5.35,2.463-8.456,2.463h-27.832v41.016h-20.641V85.306H984.06z
			 M956.228,138.306h19.043c6.392,0,9.588-6.479,9.588-19.442c0-13.404-3.196-20.108-9.588-20.108h-19.043V138.306z"/>
		<path fill="#FFFFFF" stroke="#FFFFFF" stroke-width="0.216" stroke-miterlimit="45" d="M1084.6,85.306v13.45h-22.372v94.148
			h-20.375V98.755h-23.437v-13.45H1084.6z"/>
		<path fill="#FFFFFF" stroke="#FFFFFF" stroke-width="0.216" stroke-miterlimit="45" d="M1147.719,85.306
			c3.018,0,5.813,0.755,8.39,2.264c2.574,1.511,4.748,3.595,6.525,6.259c1.774,2.663,3.173,5.792,4.194,9.388
			c1.02,3.596,1.531,7.48,1.531,11.652v48.873c0,3.995-0.489,7.77-1.465,11.318c-0.978,3.552-2.354,6.638-4.128,9.256
			c-1.777,2.619-3.929,4.706-6.459,6.259c-2.529,1.554-5.393,2.33-8.589,2.33h-29.563c-3.109,0-5.926-0.753-8.456-2.264
			c-2.53-1.509-4.707-3.596-6.525-6.259c-1.82-2.663-3.219-5.771-4.195-9.322c-0.978-3.549-1.465-7.323-1.465-11.318v-48.873
			c0-4.171,0.487-8.056,1.465-11.652c0.977-3.596,2.375-6.725,4.195-9.388c1.818-2.664,3.995-4.748,6.525-6.259
			c2.53-1.509,5.347-2.264,8.456-2.264H1147.719z M1117.357,163.741c0,2.043,0.221,4.018,0.666,5.926
			c0.443,1.91,1.065,3.618,1.864,5.127c0.8,1.511,1.798,2.709,2.996,3.596c1.199,0.888,2.552,1.331,4.063,1.331h11.984
			c1.509,0,2.863-0.443,4.062-1.331c1.198-0.887,2.197-2.064,2.996-3.529c0.8-1.465,1.419-3.15,1.864-5.061
			c0.443-1.908,0.666-3.929,0.666-6.059v-48.873c0-2.218-0.223-4.305-0.666-6.259c-0.445-1.952-1.088-3.662-1.931-5.126
			c-0.845-1.465-1.864-2.618-3.063-3.462c-1.198-0.843-2.51-1.265-3.929-1.265h-11.984c-1.511,0-2.843,0.445-3.995,1.332
			c-1.155,0.889-2.154,2.064-2.996,3.529c-0.846,1.465-1.488,3.175-1.932,5.127c-0.445,1.954-0.666,3.995-0.666,6.125V163.741z"/>
		<path fill="#FFFFFF" stroke="#FFFFFF" stroke-width="0.216" stroke-miterlimit="45" d="M1228.151,85.306
			c3.017,0,5.792,0.911,8.322,2.729c2.53,1.821,4.682,4.262,6.459,7.324c1.774,3.063,3.173,6.659,4.194,10.787
			c1.02,4.128,1.531,8.456,1.531,12.984c0,4.707-0.488,9.055-1.465,13.05c-0.978,3.995-2.353,7.457-4.128,10.387
			c-1.776,2.93-3.929,5.217-6.458,6.858c-2.53,1.644-5.35,2.463-8.456,2.463h-27.832v41.016h-20.641V85.306H1228.151z
			 M1200.319,138.306h19.043c6.392,0,9.588-6.479,9.588-19.442c0-13.404-3.196-20.108-9.588-20.108h-19.043V138.306z"/>
	</g>
	<g>
		
			<path fill-rule="evenodd" clip-rule="evenodd" fill="#FFFFFF" stroke="#FFFFFF" stroke-width="0.5" stroke-miterlimit="2.6131" d="
			M476.458,218.406c12.469,0,22.732,9.409,24.038,21.495h-7.313c-1.259-8.08-8.266-14.262-16.725-14.262
			c-9.348,0-16.921,7.555-16.921,16.871c0,9.322,7.573,16.874,16.921,16.874c4.713,0,8.979-1.918,12.047-5.02h9.01
			c-4.152,7.314-12.027,12.25-21.058,12.25c-13.353,0-24.172-10.79-24.172-24.104C452.285,229.199,463.105,218.406,476.458,218.406z
			"/>
		
			<path fill-rule="evenodd" clip-rule="evenodd" fill="#FFFFFF" stroke="#FFFFFF" stroke-width="0.5" stroke-miterlimit="2.6131" d="
			M466.345,243.517h36.642c1.857,0,3.376,1.519,3.376,3.372v0.485c0,1.857-1.519,3.376-3.376,3.376h-36.642
			c-1.856,0-3.376-1.519-3.376-3.376v-0.485C462.969,245.036,464.489,243.517,466.345,243.517z"/>
		<g>
			<path fill="#FFFFFF" d="M534.845,270.217v-27.621h4.188v3.875c0.867-1.353,2.02-2.44,3.459-3.264
				c1.439-0.823,3.078-1.235,4.916-1.235c2.046,0,3.724,0.425,5.033,1.274s2.232,2.037,2.77,3.563
				c2.185-3.225,5.028-4.837,8.531-4.837c2.74,0,4.846,0.759,6.32,2.275c1.474,1.518,2.211,3.854,2.211,7.01v18.96h-4.656v-17.399
				c0-1.873-0.152-3.221-0.455-4.045c-0.304-0.823-0.854-1.486-1.652-1.989s-1.734-0.755-2.809-0.755
				c-1.942,0-3.555,0.646-4.838,1.938c-1.283,1.292-1.924,3.36-1.924,6.203v16.048h-4.682v-17.946c0-2.08-0.382-3.641-1.145-4.682
				c-0.763-1.04-2.012-1.561-3.745-1.561c-1.318,0-2.536,0.348-3.654,1.041c-1.119,0.693-1.929,1.708-2.432,3.043
				s-0.754,3.26-0.754,5.773v14.331H534.845z"/>
			<path fill="#FFFFFF" d="M579.242,237.472v-5.384h4.682v5.384H579.242z M579.242,270.217v-27.621h4.682v27.621H579.242z"/>
			<path fill="#FFFFFF" d="M591.051,270.217v-27.621h4.213v3.927c2.029-3.034,4.958-4.551,8.791-4.551
				c1.665,0,3.194,0.299,4.59,0.896c1.396,0.599,2.44,1.384,3.134,2.354c0.693,0.971,1.179,2.124,1.457,3.459
				c0.173,0.867,0.26,2.384,0.26,4.552v16.983h-4.681v-16.802c0-1.907-0.182-3.333-0.546-4.278s-1.01-1.699-1.938-2.263
				c-0.928-0.563-2.016-0.846-3.264-0.846c-1.994,0-3.715,0.634-5.163,1.899s-2.171,3.667-2.171,7.204v15.085H591.051z"/>
			<path fill="#FFFFFF" d="M619.816,272.506l4.552,0.676c0.19,1.404,0.719,2.428,1.586,3.069c1.162,0.866,2.748,1.301,4.76,1.301
				c2.167,0,3.84-0.435,5.02-1.301c1.179-0.867,1.977-2.081,2.393-3.642c0.243-0.953,0.355-2.956,0.338-6.008
				c-2.046,2.41-4.595,3.615-7.646,3.615c-3.797,0-6.736-1.369-8.817-4.109c-2.081-2.739-3.121-6.025-3.121-9.857
				c0-2.636,0.477-5.067,1.43-7.295c0.954-2.229,2.336-3.949,4.148-5.163c1.812-1.214,3.94-1.82,6.385-1.82
				c3.26,0,5.947,1.317,8.063,3.953v-3.329h4.317v23.876c0,4.3-0.438,7.348-1.313,9.142c-0.876,1.795-2.263,3.213-4.162,4.253
				s-4.235,1.561-7.009,1.561c-3.294,0-5.956-0.741-7.985-2.224S619.747,275.488,619.816,272.506z M623.692,255.913
				c0,3.624,0.719,6.268,2.159,7.933c1.439,1.664,3.242,2.497,5.41,2.497c2.15,0,3.954-0.828,5.41-2.484
				c1.457-1.655,2.185-4.252,2.185-7.789c0-3.382-0.75-5.931-2.25-7.646c-1.5-1.717-3.308-2.575-5.423-2.575
				c-2.081,0-3.849,0.845-5.306,2.536C624.42,250.074,623.692,252.583,623.692,255.913z"/>
			<path fill="#FFFFFF" d="M663.277,258.773v-4.707h14.383v4.707H663.277z"/>
		</g>
		
			<polygon fill-rule="evenodd" clip-rule="evenodd" fill="#FFFFFF" stroke="#FFFFFF" stroke-width="0.216" stroke-miterlimit="2.6131" points="
			701.909,239.665 712.948,239.665 722.571,267.151 712.953,267.151 707.455,251.445 701.956,267.151 690.959,267.151 		"/>
		<path fill-rule="evenodd" clip-rule="evenodd" fill="#EC1C24" d="M725.323,239.665h9.658l10.95,27.486h-10.99l-2.04-5.836
			c0.51-0.528,0.827-1.251,0.827-2.05c0-1.498-1.118-2.736-2.568-2.918l-1.718-4.902v0.002L725.323,239.665z"/>
		
			<polygon fill-rule="evenodd" clip-rule="evenodd" fill="#FFFFFF" stroke="#FFFFFF" stroke-width="0.216" stroke-miterlimit="2.6131" points="
			724.693,241.555 726.784,247.55 728.875,253.543 726.082,259.536 723.294,265.529 721.202,259.536 719.112,253.543 721.9,247.55 
					"/>
		<path fill-rule="evenodd" clip-rule="evenodd" fill="#EC1C24" d="M730.784,261.229c1.082,0,1.966-0.882,1.966-1.964
			s-0.884-1.961-1.966-1.961c-1.081,0-1.96,0.879-1.96,1.961S729.703,261.229,730.784,261.229z"/>
		<g>
			<path fill="#FFFFFF" d="M765.242,259.226l4.604,0.598c-0.503,3.174-1.79,5.657-3.862,7.452c-2.072,1.794-4.616,2.691-7.634,2.691
				c-3.78,0-6.818-1.235-9.115-3.706c-2.298-2.471-3.446-6.012-3.446-10.625c0-2.981,0.494-5.592,1.482-7.828
				c0.988-2.237,2.492-3.914,4.513-5.033c2.02-1.118,4.217-1.677,6.593-1.677c3,0,5.453,0.759,7.36,2.275
				c1.907,1.518,3.13,3.672,3.667,6.463l-4.551,0.702c-0.434-1.854-1.201-3.251-2.302-4.188c-1.102-0.936-2.433-1.404-3.993-1.404
				c-2.357,0-4.274,0.846-5.747,2.536c-1.475,1.69-2.211,4.365-2.211,8.023c0,3.711,0.711,6.407,2.133,8.089
				c1.421,1.683,3.276,2.523,5.565,2.523c1.838,0,3.372-0.563,4.604-1.691C764.133,263.3,764.913,261.567,765.242,259.226z"/>
			<path fill="#FFFFFF" d="M778.169,269.343h-4.344v-38.129h4.682v13.603c1.977-2.479,4.499-3.719,7.568-3.719
				c1.699,0,3.308,0.342,4.824,1.027c1.518,0.685,2.766,1.647,3.746,2.887c0.979,1.239,1.746,2.735,2.302,4.486
				c0.555,1.752,0.832,3.624,0.832,5.618c0,4.733-1.171,8.392-3.512,10.976s-5.149,3.875-8.427,3.875
				c-3.26,0-5.817-1.36-7.672-4.083V269.343z M778.116,255.325c0,3.312,0.451,5.705,1.353,7.179c1.474,2.41,3.468,3.615,5.982,3.615
				c2.046,0,3.814-0.889,5.306-2.666s2.236-4.426,2.236-7.946c0-3.606-0.715-6.268-2.146-7.984s-3.16-2.575-5.188-2.575
				c-2.046,0-3.814,0.889-5.306,2.666C778.862,249.39,778.116,251.96,778.116,255.325z"/>
			<path fill="#FFFFFF" d="M801.733,255.533c0-5.115,1.422-8.903,4.266-11.366c2.375-2.046,5.271-3.068,8.687-3.068
				c3.798,0,6.901,1.244,9.312,3.731c2.41,2.488,3.615,5.927,3.615,10.313c0,3.555-0.533,6.351-1.6,8.389
				c-1.066,2.037-2.618,3.619-4.655,4.746c-2.038,1.127-4.262,1.69-6.672,1.69c-3.866,0-6.992-1.239-9.376-3.719
				S801.733,260.197,801.733,255.533z M806.544,255.533c0,3.537,0.771,6.186,2.314,7.945c1.544,1.761,3.485,2.641,5.826,2.641
				c2.323,0,4.257-0.885,5.8-2.653c1.544-1.769,2.315-4.465,2.315-8.089c0-3.416-0.776-6.004-2.328-7.764s-3.481-2.64-5.787-2.64
				c-2.341,0-4.282,0.876-5.826,2.627C807.316,249.351,806.544,251.996,806.544,255.533z"/>
			<path fill="#FFFFFF" d="M831.357,255.533c0-5.115,1.422-8.903,4.266-11.366c2.375-2.046,5.271-3.068,8.687-3.068
				c3.798,0,6.901,1.244,9.312,3.731c2.41,2.488,3.615,5.927,3.615,10.313c0,3.555-0.533,6.351-1.6,8.389
				c-1.066,2.037-2.618,3.619-4.655,4.746c-2.038,1.127-4.262,1.69-6.672,1.69c-3.866,0-6.992-1.239-9.376-3.719
				S831.357,260.197,831.357,255.533z M836.168,255.533c0,3.537,0.771,6.186,2.314,7.945c1.544,1.761,3.485,2.641,5.826,2.641
				c2.323,0,4.257-0.885,5.8-2.653c1.544-1.769,2.315-4.465,2.315-8.089c0-3.416-0.776-6.004-2.328-7.764s-3.481-2.64-5.787-2.64
				c-2.341,0-4.282,0.876-5.826,2.627C836.94,249.351,836.168,251.996,836.168,255.533z"/>
			<path fill="#FFFFFF" d="M862.749,269.343v-38.129h4.682v21.743l11.08-11.235h6.06l-10.56,10.247l11.626,17.374h-5.773
				l-9.13-14.123l-3.303,3.174v10.949H862.749z"/>
			<path fill="#FFFFFF" d="M902.334,257.899v-4.707h14.383v4.707H902.334z"/>
		</g>
		<path fill-rule="evenodd" clip-rule="evenodd" fill="#EC1C24" d="M513.256,239.915h9.66l10.95,27.486h-10.992l-2.044-5.833
			c0.515-0.531,0.832-1.252,0.832-2.051c0-1.5-1.118-2.738-2.569-2.921l-1.717-4.899l0,0L513.256,239.915z"/>
		
			<polygon fill-rule="evenodd" clip-rule="evenodd" fill="#FFFFFF" stroke="#FFFFFF" stroke-width="0.216" stroke-miterlimit="2.6131" points="
			512.626,241.808 514.717,247.8 516.808,253.792 514.015,259.786 511.221,265.781 509.131,259.786 507.039,253.792 509.832,247.8 
					"/>
		<path fill-rule="evenodd" clip-rule="evenodd" fill="#EC1C24" d="M518.718,261.481c1.082,0,1.961-0.884,1.961-1.964
			c0-1.081-0.879-1.963-1.961-1.963c-1.082,0-1.961,0.882-1.961,1.963C516.756,260.597,517.635,261.481,518.718,261.481z"/>
		<g>
			<path fill="#FFFFFF" d="M986.697,256.425c0-5.115,1.422-8.903,4.266-11.366c2.375-2.046,5.271-3.068,8.687-3.068
				c3.798,0,6.901,1.244,9.312,3.731c2.41,2.488,3.615,5.927,3.615,10.313c0,3.555-0.533,6.351-1.6,8.389
				c-1.066,2.037-2.618,3.619-4.655,4.746c-2.038,1.127-4.262,1.69-6.672,1.69c-3.866,0-6.992-1.239-9.376-3.719
				S986.697,261.089,986.697,256.425z M991.508,256.425c0,3.537,0.771,6.186,2.314,7.945c1.544,1.761,3.485,2.641,5.826,2.641
				c2.323,0,4.257-0.885,5.8-2.653c1.544-1.769,2.315-4.465,2.315-8.089c0-3.416-0.776-6.004-2.328-7.764s-3.481-2.64-5.787-2.64
				c-2.341,0-4.282,0.876-5.826,2.627C992.28,250.244,991.508,252.888,991.508,256.425z"/>
			<path fill="#FFFFFF" d="M1018.011,270.236v-27.621h4.214v4.188c1.074-1.96,2.067-3.251,2.978-3.876
				c0.91-0.624,1.912-0.936,3.004-0.936c1.578,0,3.182,0.503,4.812,1.508l-1.612,4.344c-1.145-0.676-2.289-1.015-3.433-1.015
				c-1.023,0-1.942,0.309-2.757,0.924c-0.815,0.615-1.396,1.47-1.743,2.562c-0.521,1.665-0.78,3.485-0.78,5.462v14.461H1018.011z"/>
			<path fill="#FFFFFF" d="M1035.827,270.236v-38.129h4.682v21.743l11.08-11.235h6.06l-10.56,10.247l11.626,17.374h-5.773
				l-9.13-14.123l-3.303,3.174v10.949H1035.827z"/>
			<path fill="#FFFFFF" d="M1060.562,261.991l4.63-0.728c0.26,1.855,0.983,3.276,2.171,4.265s2.849,1.483,4.981,1.483
				c2.149,0,3.745-0.438,4.785-1.313c1.04-0.876,1.561-1.903,1.561-3.082c0-1.058-0.46-1.891-1.378-2.497
				c-0.643-0.416-2.237-0.945-4.786-1.587c-3.434-0.866-5.813-1.616-7.14-2.25c-1.326-0.633-2.332-1.508-3.017-2.627
				c-0.686-1.118-1.027-2.354-1.027-3.706c0-1.23,0.281-2.37,0.845-3.42c0.563-1.049,1.331-1.92,2.302-2.614
				c0.729-0.537,1.721-0.992,2.979-1.365c1.257-0.372,2.604-0.559,4.044-0.559c2.168,0,4.07,0.312,5.709,0.936
				c1.639,0.625,2.849,1.47,3.629,2.536s1.317,2.493,1.612,4.278l-4.578,0.624c-0.208-1.421-0.811-2.531-1.808-3.329
				c-0.997-0.797-2.405-1.196-4.226-1.196c-2.15,0-3.686,0.355-4.604,1.066c-0.92,0.711-1.379,1.544-1.379,2.497
				c0,0.607,0.19,1.153,0.572,1.639c0.381,0.503,0.979,0.919,1.795,1.248c0.468,0.174,1.847,0.572,4.135,1.196
				c3.312,0.885,5.622,1.608,6.932,2.172c1.309,0.563,2.336,1.383,3.082,2.458c0.745,1.075,1.118,2.41,1.118,4.006
				c0,1.56-0.455,3.029-1.365,4.408c-0.91,1.378-2.224,2.444-3.94,3.199c-1.717,0.754-3.658,1.131-5.826,1.131
				c-3.589,0-6.324-0.745-8.205-2.236C1062.282,267.132,1061.082,264.921,1060.562,261.991z"/>
			<path fill="#FFFFFF" d="M1099.288,266.048l0.677,4.136c-1.318,0.277-2.497,0.416-3.537,0.416c-1.7,0-3.018-0.27-3.954-0.807
				c-0.936-0.537-1.595-1.244-1.977-2.119c-0.381-0.876-0.572-2.718-0.572-5.527v-15.892h-3.433v-3.641h3.433v-6.841l4.656-2.809
				v9.649h4.707v3.641h-4.707v16.151c0,1.336,0.082,2.194,0.247,2.575c0.164,0.382,0.433,0.686,0.806,0.91
				c0.373,0.226,0.906,0.339,1.6,0.339C1097.754,266.231,1098.439,266.17,1099.288,266.048z"/>
			<path fill="#FFFFFF" d="M1121.89,266.829c-1.734,1.474-3.403,2.515-5.007,3.121s-3.325,0.91-5.162,0.91
				c-3.035,0-5.367-0.741-6.997-2.224s-2.444-3.377-2.444-5.683c0-1.353,0.308-2.588,0.923-3.706
				c0.615-1.119,1.422-2.016,2.419-2.692c0.997-0.676,2.12-1.188,3.368-1.534c0.919-0.243,2.306-0.477,4.161-0.702
				c3.78-0.451,6.563-0.988,8.35-1.613c0.017-0.641,0.025-1.049,0.025-1.222c0-1.907-0.442-3.252-1.326-4.031
				c-1.196-1.058-2.974-1.587-5.332-1.587c-2.202,0-3.827,0.386-4.876,1.157c-1.05,0.771-1.825,2.138-2.328,4.097l-4.578-0.624
				c0.417-1.96,1.102-3.542,2.055-4.747c0.954-1.205,2.332-2.133,4.136-2.783s3.893-0.975,6.269-0.975
				c2.357,0,4.273,0.277,5.748,0.832c1.473,0.555,2.557,1.253,3.251,2.094c0.693,0.841,1.179,1.903,1.456,3.186
				c0.156,0.798,0.234,2.237,0.234,4.317v6.242c0,4.353,0.1,7.105,0.299,8.258c0.199,1.153,0.594,2.259,1.184,3.316h-4.89
				C1122.341,269.265,1122.029,268.129,1121.89,266.829z M1121.5,256.374c-1.7,0.693-4.249,1.283-7.646,1.769
				c-1.925,0.277-3.286,0.589-4.084,0.936c-0.798,0.348-1.413,0.854-1.847,1.521c-0.434,0.668-0.65,1.409-0.65,2.225
				c0,1.248,0.473,2.288,1.418,3.121c0.944,0.832,2.328,1.248,4.148,1.248c1.803,0,3.407-0.395,4.812-1.184s2.436-1.868,3.095-3.238
				c0.503-1.057,0.755-2.617,0.755-4.682V256.374z"/>
			<path fill="#FFFFFF" d="M1143.711,266.048l0.677,4.136c-1.318,0.277-2.497,0.416-3.537,0.416c-1.7,0-3.018-0.27-3.954-0.807
				c-0.936-0.537-1.595-1.244-1.977-2.119c-0.381-0.876-0.572-2.718-0.572-5.527v-15.892h-3.433v-3.641h3.433v-6.841l4.656-2.809
				v9.649h4.707v3.641h-4.707v16.151c0,1.336,0.082,2.194,0.247,2.575c0.164,0.382,0.433,0.686,0.806,0.91
				c0.373,0.226,0.906,0.339,1.6,0.339C1142.177,266.231,1142.862,266.17,1143.711,266.048z"/>
			<path fill="#FFFFFF" d="M1148.315,237.491v-5.384h4.682v5.384H1148.315z M1148.315,270.236v-27.621h4.682v27.621H1148.315z"/>
			<path fill="#FFFFFF" d="M1158.38,256.425c0-5.115,1.422-8.903,4.266-11.366c2.375-2.046,5.271-3.068,8.687-3.068
				c3.798,0,6.901,1.244,9.312,3.731c2.41,2.488,3.615,5.927,3.615,10.313c0,3.555-0.533,6.351-1.6,8.389
				c-1.066,2.037-2.618,3.619-4.655,4.746c-2.038,1.127-4.262,1.69-6.672,1.69c-3.866,0-6.992-1.239-9.376-3.719
				S1158.38,261.089,1158.38,256.425z M1163.192,256.425c0,3.537,0.771,6.186,2.314,7.945c1.544,1.761,3.485,2.641,5.826,2.641
				c2.323,0,4.257-0.885,5.8-2.653c1.544-1.769,2.315-4.465,2.315-8.089c0-3.416-0.776-6.004-2.328-7.764s-3.481-2.64-5.787-2.64
				c-2.341,0-4.282,0.876-5.826,2.627C1163.963,250.244,1163.192,252.888,1163.192,256.425z"/>
			<path fill="#FFFFFF" d="M1189.746,270.236v-27.621h4.214v3.927c2.028-3.034,4.959-4.551,8.791-4.551
				c1.664,0,3.194,0.299,4.591,0.896c1.396,0.599,2.44,1.384,3.134,2.354s1.179,2.124,1.456,3.459
				c0.174,0.867,0.261,2.384,0.261,4.552v16.983h-4.682v-16.802c0-1.907-0.183-3.333-0.547-4.278
				c-0.363-0.945-1.01-1.699-1.938-2.263s-2.016-0.846-3.264-0.846c-1.994,0-3.715,0.634-5.163,1.899
				c-1.447,1.266-2.172,3.667-2.172,7.204v15.085H1189.746z"/>
		</g>
		
			<polygon fill-rule="evenodd" clip-rule="evenodd" fill="#FFFFFF" stroke="#FFFFFF" stroke-width="0.216" stroke-miterlimit="2.6131" points="
			974.806,267.531 963.768,267.531 954.146,240.045 963.764,240.045 969.26,255.752 974.759,240.045 985.756,240.045 		"/>
		<path fill-rule="evenodd" clip-rule="evenodd" fill="#EC1C24" d="M951.394,267.531h-9.66l-10.95-27.485h10.992l2.038,5.833
			c-0.51,0.53-0.827,1.253-0.827,2.05c0,1.501,1.119,2.738,2.571,2.92l1.715,4.904v-0.004L951.394,267.531z"/>
		
			<polygon fill-rule="evenodd" clip-rule="evenodd" fill="#FFFFFF" stroke="#FFFFFF" stroke-width="0.216" stroke-miterlimit="2.6131" points="
			952.023,265.64 949.932,259.645 947.841,253.653 950.634,247.66 953.426,241.665 955.52,247.66 957.61,253.653 954.816,259.645 		
			"/>
		<path fill-rule="evenodd" clip-rule="evenodd" fill="#EC1C24" d="M945.931,249.891c-1.087,0-1.966-0.879-1.966-1.963
			c0-1.085,0.879-1.964,1.966-1.964c1.082,0,1.963,0.879,1.963,1.964C947.894,249.012,947.013,249.891,945.931,249.891z"/>
	</g>
</g>
</svg>
